HIERARCHY
ROOT Joint0
{
  OFFSET 0.0000 0.0000 1.0000
  CHANNELS 6 Xposition Yposition Zposition Zrotation Xrotation Yrotation
  JOINT Joint1
  {
    OFFSET 0.0811 -0.0899 -0.0114
    CHANNELS 3 Zrotation Xrotation Yrotation
    JOINT Joint4
    {
      OFFSET 0.0297 -0.3677 -0.0039
      CHANNELS 3 Zrotation Xrotation Yrotation
      JOINT Joint7
      {
        OFFSET -0.0120 -0.3841 -0.0490
        CHANNELS 3 Zrotation Xrotation Yrotation
        JOINT Joint10
        {
          OFFSET 0.0247 -0.0555 0.1226
          CHANNELS 3 Zrotation Xrotation Yrotation
          End Site
          {
            OFFSET 0.0247 -0.0555 0.1226
          }
        }
      }
    }
  }
  JOINT Joint2
  {
    OFFSET -0.0773 -0.0878 -0.0084
    CHANNELS 3 Zrotation Xrotation Yrotation
    JOINT Joint5
    {
      OFFSET -0.0344 -0.3716 -0.0062
      CHANNELS 3 Zrotation Xrotation Yrotation
      JOINT Joint8
      {
        OFFSET 0.0139 -0.3835 -0.0484
        CHANNELS 3 Zrotation Xrotation Yrotation
        JOINT Joint11
        {
          OFFSET -0.0293 -0.0469 0.1263
          CHANNELS 3 Zrotation Xrotation Yrotation
          End Site
          {
            OFFSET -0.0293 -0.0469 0.1263
          }
        }
      }
    }
  }
  JOINT Joint3
  {
    OFFSET -0.0027 0.1037 -0.0232
    CHANNELS 3 Zrotation Xrotation Yrotation
    JOINT Joint6
    {
      OFFSET 0.0030 0.1296 -0.0027
      CHANNELS 3 Zrotation Xrotation Yrotation
      JOINT Joint9
      {
        OFFSET 0.0015 0.0533 0.0332
        CHANNELS 3 Zrotation Xrotation Yrotation
        JOINT Joint12
        {
          OFFSET -0.0004 0.2283 -0.0600
          CHANNELS 3 Zrotation Xrotation Yrotation
          JOINT Joint15
          {
            OFFSET 0.0048 0.0641 0.0558
            CHANNELS 3 Zrotation Xrotation Yrotation
            End Site
            {
              OFFSET 0.0048 0.0641 0.0558
            }
          }
        }
        JOINT Joint13
        {
          OFFSET 0.0787 0.1275 -0.0430
          CHANNELS 3 Zrotation Xrotation Yrotation
          JOINT Joint16
          {
            OFFSET 0.0914 0.0355 -0.0086
            CHANNELS 3 Zrotation Xrotation Yrotation
            JOINT Joint18
            {
              OFFSET 0.2512 -0.0141 -0.0294
              CHANNELS 3 Zrotation Xrotation Yrotation
              JOINT Joint20
              {
                OFFSET 0.2431 0.0092 0.0027
                CHANNELS 3 Zrotation Xrotation Yrotation
                JOINT Joint22
                {
                  OFFSET 0.1053 -0.0108 0.0234
                  CHANNELS 3 Zrotation Xrotation Yrotation
                  JOINT Joint23
                  {
                    OFFSET 0.0332 0.0042 0.0030
                    CHANNELS 3 Zrotation Xrotation Yrotation
                    JOINT Joint24
                    {
                      OFFSET 0.0234 -0.0009 0.0005
                      CHANNELS 3 Zrotation Xrotation Yrotation
                      End Site
                      {
                        OFFSET 0.0234 -0.0009 0.0005
                      }
                    }
                  }
                }
                JOINT Joint25
                {
                  OFFSET 0.1126 -0.0078 -0.0002
                  CHANNELS 3 Zrotation Xrotation Yrotation
                  JOINT Joint26
                  {
                    OFFSET 0.0317 0.0021 -0.0047
                    CHANNELS 3 Zrotation Xrotation Yrotation
                    JOINT Joint27
                    {
                      OFFSET 0.0246 -0.0008 -0.0039
                      CHANNELS 3 Zrotation Xrotation Yrotation
                      End Site
                      {
                        OFFSET 0.0246 -0.0008 -0.0039
                      }
                    }
                  }
                }
                JOINT Joint28
                {
                  OFFSET 0.0860 -0.0168 -0.0403
                  CHANNELS 3 Zrotation Xrotation Yrotation
                  JOINT Joint29
                  {
                    OFFSET 0.0158 -0.0006 -0.0114
                    CHANNELS 3 Zrotation Xrotation Yrotation
                    JOINT Joint30
                    {
                      OFFSET 0.0161 -0.0011 -0.0109
                      CHANNELS 3 Zrotation Xrotation Yrotation
                      End Site
                      {
                        OFFSET 0.0161 -0.0011 -0.0109
                      }
                    }
                  }
                }
                JOINT Joint31
                {
                  OFFSET 0.0999 -0.0111 -0.0238
                  CHANNELS 3 Zrotation Xrotation Yrotation
                  JOINT Joint32
                  {
                    OFFSET 0.0286 0.0023 -0.0053
                    CHANNELS 3 Zrotation Xrotation Yrotation
                    JOINT Joint33
                    {
                      OFFSET 0.0234 -0.0009 -0.0074
                      CHANNELS 3 Zrotation Xrotation Yrotation
                      End Site
                      {
                        OFFSET 0.0234 -0.0009 -0.0074
                      }
                    }
                  }
                }
                JOINT Joint34
                {
                  OFFSET 0.0426 -0.0219 0.0277
                  CHANNELS 3 Zrotation Xrotation Yrotation
                  JOINT Joint35
                  {
                    OFFSET 0.0185 0.0008 0.0246
                    CHANNELS 3 Zrotation Xrotation Yrotation
                    JOINT Joint36
                    {
                      OFFSET 0.0221 -0.0048 0.0152
                      CHANNELS 3 Zrotation Xrotation Yrotation
                      End Site
                      {
                        OFFSET 0.0221 -0.0048 0.0152
                      }
                    }
                  }
                }
              }
            }
          }
        }
        JOINT Joint14
        {
          OFFSET -0.0815 0.1251 -0.0492
          CHANNELS 3 Zrotation Xrotation Yrotation
          JOINT Joint17
          {
            OFFSET -0.0975 0.0385 -0.0099
            CHANNELS 3 Zrotation Xrotation Yrotation
            JOINT Joint19
            {
              OFFSET -0.2546 -0.0159 -0.0229
              CHANNELS 3 Zrotation Xrotation Yrotation
              JOINT Joint21
              {
                OFFSET -0.2519 0.0079 0.0007
                CHANNELS 3 Zrotation Xrotation Yrotation
                JOINT Joint37
                {
                  OFFSET -0.1043 -0.0103 0.0246
                  CHANNELS 3 Zrotation Xrotation Yrotation
                  JOINT Joint38
                  {
                    OFFSET -0.0341 0.0034 0.0025
                    CHANNELS 3 Zrotation Xrotation Yrotation
                    JOINT Joint39
                    {
                      OFFSET -0.0236 -0.0015 -0.0003
                      CHANNELS 3 Zrotation Xrotation Yrotation
                      End Site
                      {
                        OFFSET -0.0236 -0.0015 -0.0003
                      }
                    }
                  }
                }
                JOINT Joint40
                {
                  OFFSET -0.1123 -0.0074 -0.0003
                  CHANNELS 3 Zrotation Xrotation Yrotation
                  JOINT Joint41
                  {
                    OFFSET -0.0322 0.0016 -0.0048
                    CHANNELS 3 Zrotation Xrotation Yrotation
                    JOINT Joint42
                    {
                      OFFSET -0.0245 -0.0012 -0.0045
                      CHANNELS 3 Zrotation Xrotation Yrotation
                      End Site
                      {
                        OFFSET -0.0245 -0.0012 -0.0045
                      }
                    }
                  }
                }
                JOINT Joint43
                {
                  OFFSET -0.0863 -0.0161 -0.0419
                  CHANNELS 3 Zrotation Xrotation Yrotation
                  JOINT Joint44
                  {
                    OFFSET -0.0162 -0.0001 -0.0120
                    CHANNELS 3 Zrotation Xrotation Yrotation
                    JOINT Joint45
                    {
                      OFFSET -0.0165 -0.0007 -0.0110
                      CHANNELS 3 Zrotation Xrotation Yrotation
                      End Site
                      {
                        OFFSET -0.0165 -0.0007 -0.0110
                      }
                    }
                  }
                }
                JOINT Joint46
                {
                  OFFSET -0.0999 -0.0107 -0.0248
                  CHANNELS 3 Zrotation Xrotation Yrotation
                  JOINT Joint47
                  {
                    OFFSET -0.0290 0.0016 -0.0050
                    CHANNELS 3 Zrotation Xrotation Yrotation
                    JOINT Joint48
                    {
                      OFFSET -0.0236 -0.0012 -0.0076
                      CHANNELS 3 Zrotation Xrotation Yrotation
                      End Site
                      {
                        OFFSET -0.0236 -0.0012 -0.0076
                      }
                    }
                  }
                }
                JOINT Joint49
                {
                  OFFSET -0.0397 -0.0214 0.0306
                  CHANNELS 3 Zrotation Xrotation Yrotation
                  JOINT Joint50
                  {
                    OFFSET -0.0191 0.0007 0.0247
                    CHANNELS 3 Zrotation Xrotation Yrotation
                    JOINT Joint51
                    {
                      OFFSET -0.0231 -0.0056 0.0141
                      CHANNELS 3 Zrotation Xrotation Yrotation
                      End Site
                      {
                        OFFSET -0.0231 -0.0056 0.0141
                      }
                    }
                  }
                }
              }
            }
          }
        }
      }
    }
  }
}
MOTION
Frames: 6
Frame Time: 0.0333
0.0000 0.0000 0.0000 53.7253 62.6671 47.5368 22.9794 0.5262 -19.8280 -14.0179 30.7945 -8.2263 -0.6509 -5.7818 18.5772 -0.3842 0.0919 0.5962 -18.5026 -21.7374 3.4221 14.7458 21.9518 -10.6664 15.9275 -9.4584 33.2941 0.4575 -0.5002 0.0591 -10.7894 7.4738 22.2890 20.5721 7.7789 0.3247 -17.5349 -0.2085 28.8186 10.9164 -31.7536 45.9324 -13.4966 46.6337 -12.6062 -13.1511 -10.6028 -27.9645 -28.5383 -5.6371 -89.9264 44.9742 -35.9225 -82.0523 7.8970 -21.7109 -13.4101 -23.3525 5.6220 3.4860 -42.9611 7.3728 -1.1137 -11.4591 -4.7792 -5.7581 -30.2123 -7.6036 0.8869 -40.5929 -8.4600 -0.1421 -19.8374 -0.3813 -5.2268 -40.3520 -20.7877 -19.2016 -30.0370 -10.9781 -6.5877 -5.5120 -21.2030 -4.6289 -37.0677 -5.5142 -7.0012 -36.8671 -15.1630 -8.4842 -22.5592 -8.6083 -9.7168 -16.0928 46.6632 23.6048 3.6614 -28.2747 2.1166 -18.0183 30.3745 8.1321 -2.0489 -13.1174 62.8766 6.6387 -1.8350 23.5398 -83.7578 -1.8981 79.4915 -3.3349 46.5915 -11.2682 24.6744 5.3261 -4.1430 43.0916 7.3859 0.7720 11.0769 -5.2660 5.6303 30.0465 -7.0774 -0.8280 40.3342 -8.3166 0.1465 19.9015 -0.1570 5.7295 39.7436 -20.5225 19.4543 29.8441 -10.9344 6.7571 5.6554 -21.2211 4.5290 36.2405 -6.2499 7.4239 38.1809 -14.9990 8.3412 22.0583 -8.6781 8.9835 15.9675 47.0529 -23.4728 -4.2124 -28.7181 -2.2441 18.3220 29.2970 -7.7726
0.0000 0.0000 0.0000 53.7562 62.5022 47.5450 23.1208 0.3796 -19.6494 -14.1524 30.8902 -8.1280 -0.7081 -5.7874 18.8071 -0.3213 0.0912 0.5368 -18.8647 -21.9307 3.2210 14.7444 21.9139 -10.6328 15.7410 -9.2980 32.8859 0.4607 -0.4664 0.0143 -10.8336 7.3496 22.5247 20.5197 7.8530 0.4670 -17.7390 -0.1570 29.0449 10.8963 -31.8214 45.8723 -13.6596 46.2569 -12.3544 -13.5507 -10.5248 -28.2302 -28.0897 -5.8245 -90.1474 45.0492 -36.3705 -82.3299 7.9199 -21.7806 -13.5401 -23.3948 5.5526 3.5049 -42.8785 7.3820 -1.1415 -11.5211 -4.8037 -5.7547 -30.1999 -7.6499 0.9444 -40.6033 -8.4837 -0.0875 -19.7977 -0.3525 -5.1571 -40.3891 -20.7344 -19.2393 -30.0073 -10.9360 -6.6690 -5.4881 -21.1761 -4.7427 -37.0044 -5.5164 -6.9597 -36.9561 -15.1581 -8.6719 -22.4236 -8.5135 -9.7344 -16.0324 46.7364 23.5812 3.7193 -28.1664 2.0646 -18.1887 30.3020 8.2545 -2.0530 -13.1899 62.8800 6.4212 -1.9414 23.5064 -83.8017 -2.1736 79.4294 -3.2814 46.4146 -11.0896 24.6844 5.2889 -4.2020 43.1413 7.3261 0.7245 10.9760 -5.2193 5.5331 29.9820 -7.0423 -0.9425 40.2338 -8.3160 0.1019 19.8226 -0.2552 5.7161 39.7509 -20.5709 19.4551 29.8114 -10.9447 6.7233 5.6131 -21.1732 4.4183 36.1903 -6.2489 7.3924 38.0380 -14.9830 8.2569 21.9708 -8.7478 9.0170 15.8444 47.0745 -23.4379 -4.1264 -28.6814 -2.1184 18.3353 29.2817 -7.8551
0.0000 0.0000 0.0000 53.7342 62.2698 47.5913 23.1082 0.2650 -19.6783 -14.3544 31.2387 -8.1850 -0.6616 -5.8083 18.9922 -0.3525 0.0368 0.5085 -19.0771 -22.1051 3.2266 14.8881 21.8918 -10.8470 15.7816 -9.2937 33.2722 0.4378 -0.4364 0.0251 -10.9439 7.2973 23.0977 20.6081 7.9395 0.5791 -17.9712 -0.3280 29.4875 10.9817 -32.0015 46.6134 -14.0837 46.5104 -12.2451 -13.7330 -10.6000 -28.4807 -27.6661 -5.7986 -90.2978 45.1434 -36.7932 -82.3473 7.9687 -21.8043 -13.7442 -23.4198 5.5632 3.5411 -42.8857 7.3615 -1.1351 -11.5370 -4.8319 -5.7217 -30.1736 -7.6691 1.0237 -40.5910 -8.5259 -0.1166 -19.7725 -0.2907 -5.1048 -40.3927 -20.7342 -19.2633 -30.0813 -10.9182 -6.7212 -5.4878 -21.0400 -4.8332 -36.9675 -5.5200 -6.8817 -37.0782 -15.1333 -8.7636 -22.3323 -8.4671 -9.7117 -15.9699 46.6317 23.5582 3.6929 -27.9994 1.9459 -18.2186 30.2613 8.2871 -2.1982 -13.2953 63.0185 6.3329 -1.7511 23.5971 -84.1798 -2.4544 79.1980 -3.1148 46.5323 -11.3013 24.6327 5.3020 -4.2414 43.1978 7.3257 0.7466 10.9223 -5.1907 5.4857 30.0825 -6.9925 -1.0346 40.1689 -8.3362 0.1194 19.8682 -0.2910 5.7127 39.7521 -20.6229 19.4856 29.7954 -10.9952 6.6604 5.6250 -21.1402 4.4644 36.2391 -6.1669 7.4191 38.0247 -14.9679 8.2932 21.9226 -8.7370 9.0435 15.8031 46.9880 -23.4122 -4.0214 -28.6891 -2.0457 18.3783 29.2263 -7.9879
0.0000 0.0000 0.0000 53.6427 62.0440 47.7543 23.0576 0.1376 -19.7951 -14.4517 31.4635 -8.3441 -0.5910 -5.8664 19.1835 -0.4326 -0.0202 0.4989 -19.2914 -22.3011 3.3101 15.1091 21.8683 -11.1334 15.8820 -9.3693 33.8243 0.4013 -0.4243 0.0193 -11.0201 7.3711 23.8763 20.7870 8.0652 0.6679 -18.1407 -0.5645 29.9190 11.0547 -32.2471 47.4936 -14.7202 47.0424 -12.1606 -13.6976 -10.7561 -28.6564 -27.4015 -5.6248 -90.3713 45.2981 -37.2093 -82.1823 7.9836 -21.7420 -13.8690 -23.4169 5.6134 3.5604 -42.9024 7.3486 -1.1345 -11.5112 -4.8649 -5.6601 -30.1386 -7.6412 1.0685 -40.5448 -8.5829 -0.1506 -19.7531 -0.2713 -5.1005 -40.3722 -20.7446 -19.2474 -30.1526 -10.9568 -6.7248 -5.4517 -20.8666 -4.8299 -36.9392 -5.5347 -6.8144 -37.1744 -15.0874 -8.7970 -22.3604 -8.4920 -9.7184 -16.0093 46.5438 23.6051 3.6494 -27.8772 1.8602 -18.1061 30.3111 8.2764 -2.3041 -13.2960 63.2290 6.2566 -1.3038 23.6898 -84.6129 -2.7000 78.9288 -3.0037 46.8096 -11.5829 24.5333 5.3240 -4.2628 43.2915 7.3368 0.8073 10.9270 -5.2062 5.4965 30.2374 -6.9781 -1.0495 40.0862 -8.3385 0.0918 19.9423 -0.2553 5.7267 39.7836 -20.6047 19.5336 29.7978 -10.9809 6.6586 5.6453 -21.1462 4.5820 36.2945 -6.1224 7.4329 38.0804 -14.9729 8.3908 21.9254 -8.6985 9.0739 15.8544 46.9039 -23.4856 -3.9551 -28.6566 -2.0280 18.4519 29.2106 -8.0435
0.0000 0.0000 0.0000 53.5423 61.9053 47.9996 23.0541 0.0050 -19.8166 -14.4599 31.5909 -8.4286 -0.5371 -5.9471 19.3987 -0.4835 -0.0477 0.5015 -19.6258 -22.5038 3.3283 15.2721 21.8446 -11.3077 15.9041 -9.4854 34.0367 0.3460 -0.4200 0.0278 -10.9977 7.5315 24.6287 20.9931 8.1254 0.7320 -18.2533 -0.7442 30.2406 11.0704 -32.5166 47.9954 -15.1670 47.3121 -12.1333 -13.6817 -10.8790 -28.8059 -27.4367 -5.5178 -90.2987 45.4951 -37.6248 -82.1080 8.0058 -21.6286 -13.9833 -23.4464 5.6388 3.5070 -42.9465 7.3555 -1.1342 -11.5123 -4.8645 -5.6322 -30.1490 -7.6027 1.0812 -40.4862 -8.6486 -0.1570 -19.7082 -0.3344 -5.1202 -40.3523 -20.7606 -19.1994 -30.1574 -11.0149 -6.7028 -5.4121 -20.7642 -4.8141 -36.9191 -5.5741 -6.8032 -37.2015 -15.0515 -8.8095 -22.4942 -8.5424 -9.7729 -16.1715 46.5472 23.7679 3.6190 -27.9472 1.8927 -17.9776 30.4154 8.2615 -2.2877 -13.2001 63.3427 6.0978 -0.8560 23.6433 -84.8104 -2.8876 78.7938 -3.0057 46.9428 -11.6678 24.4487 5.3225 -4.2797 43.3360 7.3164 0.8494 10.9433 -5.2258 5.5038 30.2934 -7.0402 -1.0137 40.0680 -8.3916 0.0540 19.9706 -0.2141 5.7432 39.8020 -20.5712 19.5778 29.8008 -10.9221 6.6468 5.6193 -21.1403 4.6543 36.3103 -6.1886 7.4000 38.1071 -14.9984 8.4490 21.9495 -8.6636 9.0676 15.9737 46.8509 -23.6531 -3.9751 -28.6098 -2.0637 18.4666 29.2702 -8.0595
0.0000 0.0000 0.0000 53.4889 61.8316 48.2155 23.1276 -0.0988 -19.7154 -14.4800 31.6306 -8.3779 -0.5027 -6.0365 19.6170 -0.4998 -0.0393 0.5095 -20.1153 -22.6671 3.2630 15.3875 21.8266 -11.4293 15.8231 -9.5611 33.7775 0.3342 -0.4074 0.0157 -10.8888 7.6780 25.1848 21.1859 8.2276 0.8109 -18.3501 -0.8540 30.5006 11.0667 -32.7419 48.0630 -15.2944 47.2178 -12.1713 -13.7747 -10.9516 -28.9252 -27.6664 -5.5114 -90.1405 45.7048 -38.0827 -82.2337 8.0304 -21.4919 -14.1236 -23.4964 5.6324 3.4573 -42.9698 7.3923 -1.1633 -11.4922 -4.8604 -5.6419 -30.1759 -7.5551 1.0795 -40.4478 -8.6967 -0.1588 -19.6480 -0.3353 -5.1438 -40.3538 -20.7627 -19.1742 -30.1158 -11.0211 -6.6838 -5.4029 -20.7727 -4.7870 -36.9021 -5.6192 -6.8181 -37.2009 -15.0532 -8.8346 -22.5611 -8.6008 -9.7783 -16.3182 46.6128 23.9219 3.6439 -28.0298 1.9841 -17.9119 30.5523 8.2690 -2.1282 -13.0197 63.3595 5.8621 -0.5328 23.5870 -84.7207 -2.9523 78.7909 -3.0651 46.7886 -11.5607 24.4486 5.2777 -4.2873 43.3283 7.2723 0.8486 10.9253 -5.2380 5.4961 30.2809 -7.1051 -0.9821 40.1121 -8.4623 0.0465 19.9705 -0.1881 5.7285 39.8213 -20.5601 19.6207 29.8059 -10.8641 6.6541 5.5860 -21.1189 4.6340 36.2744 -6.3491 7.3723 38.0716 -14.9967 8.4293 22.0046 -8.6792 9.0525 16.0360 46.8282 -23.7734 -4.0358 -28.5602 -2.1226 18.3877 29.3559 -8.0247
